<svg width="418" height="272" viewBox="0 0 418 272" fill="none" xmlns="http://www.w3.org/2000/svg">
<g clip-path="url(#clip0_14_310)">
<path d="M381.705 177.026C377.368 178.626 369.749 179.942 360.932 181C336.957 183.88 304.104 184.902 304.104 184.902C304.104 184.902 135.212 198.924 8.63129 146.773C8.63129 146.773 -9.78023 137.11 7.29937 124.106C9.92939 122.162 12.7254 120.455 15.6549 119.003L15.8636 118.794C17.8063 116.997 19.9058 115.377 22.1369 113.954C28.6944 109.71 39.767 104.679 53.246 106.959L385.701 160.786C385.701 160.786 397.844 171.057 381.705 177.026Z" fill="#FFBA08"/>
<path d="M315.465 152.63L385.062 103.199L415.736 108.51L385.701 160.786C385.701 160.786 316.264 161.342 315.465 152.63Z" fill="#FFBA08"/>
<path d="M140.247 122.599L278.877 83.6783L301.222 88.3539L238.6 116.554L219.03 138.475L140.247 122.599Z" fill="#FFBA08"/>
<path d="M360.932 181C336.957 183.88 304.104 184.902 304.104 184.902C304.104 184.902 135.212 198.924 8.63129 146.773C8.63129 146.773 -9.78023 137.11 7.29937 124.106L7.35709 124.346C7.35709 124.346 34.6702 142.826 165.171 158.253L360.932 181Z" fill="#F5F8FA"/>
<path d="M338.649 179.933L400.628 205.267L416.198 203.538L379.126 175.644C379.126 175.644 334.285 166.066 338.649 179.933Z" fill="#FFBA08"/>
<path d="M29.8309 127.052C26.8741 127.101 20.0991 122.137 15.8858 118.794C17.8285 116.997 19.928 115.377 22.1591 113.954C25.5555 116.563 31.5979 120.786 34.9588 120.621C39.8114 120.421 34.284 126.972 29.8309 127.052Z" fill="#F5F8FA"/>
<path d="M311.402 267.503L271.609 269.588L159.728 194.067L138.959 180.044L128.872 173.231C147.799 157.23 225.019 179.297 225.019 179.297C226.497 180.546 226.968 182.622 226.901 184.915C226.773 189.209 224.757 194.249 223.98 196.062C223.793 196.507 223.678 196.742 223.678 196.742L311.402 267.503Z" fill="#FFBA08"/>
<path d="M375.255 76.7893L368.351 81.1627L372.533 73.5492C371.349 72.6033 369.883 72.0794 368.369 72.0603H368.258C367.779 72.0697 367.3 72.034 366.828 71.9536L364.493 73.4381L365.492 71.6159C363.837 71.0345 362.408 69.9459 361.407 68.5047L357.229 71.1714L359.867 66.3624C357.425 63.4246 354.13 61.6246 350.503 61.6246C346.157 61.6246 342.285 64.2113 339.786 68.2469C339.044 69.4554 337.997 70.4458 336.749 71.1172C335.501 71.7886 334.098 72.1171 332.682 72.0692H332.451C327.652 72.0692 323.763 77.5137 323.763 84.2338C323.763 90.9539 327.652 96.3985 332.451 96.3985C333.506 96.3951 334.544 96.1342 335.475 95.6384C337.109 94.8449 338.895 94.4156 340.711 94.3803C342.527 94.345 344.329 94.7045 345.992 95.434C347.398 96.066 348.92 96.3946 350.461 96.3985C352.001 96.4023 353.526 96.0812 354.934 95.4562C356.584 94.7404 358.368 94.3878 360.166 94.4223C361.963 94.4568 363.733 94.8776 365.354 95.6562C366.279 96.1397 367.307 96.3942 368.351 96.3985C373.15 96.3985 377.039 90.9539 377.039 84.2338C377.078 81.6417 376.464 79.0817 375.255 76.7893V76.7893Z" fill="#F5F8FA"/>
<path opacity="0.03" d="M362.268 94.5896C359.761 94.1147 357.17 94.3962 354.823 95.3985C353.417 96.0285 351.895 96.3542 350.354 96.3542C348.814 96.3542 347.292 96.0285 345.886 95.3985C344.223 94.667 342.421 94.3063 340.605 94.3416C338.788 94.3769 337.002 94.8073 335.368 95.6029C334.435 96.0972 333.396 96.358 332.34 96.3629C328.078 96.3629 324.531 92.0606 323.794 86.3894C324.647 85.7694 325.37 84.989 325.925 84.0916C328.424 80.0605 332.296 77.4737 336.642 77.4737C340.989 77.4737 344.82 80.0071 347.315 84.0072C348.062 85.2161 349.109 86.2106 350.354 86.8938C351.599 87.5769 352.999 87.9253 354.419 87.905H354.53C357.9 87.8961 360.839 90.6162 362.268 94.5896Z" fill="black"/>
<path d="M90.2156 61.0602L86.7748 63.2424L88.8615 59.4468C88.2718 58.9723 87.5402 58.7094 86.7837 58.7001H86.7304C86.491 58.7026 86.2519 58.6848 86.0156 58.6468L84.8524 59.3846L85.3496 58.4957C84.5242 58.2062 83.8111 57.6634 83.3118 56.9445L81.2296 58.2779L82.5615 55.8823C82.0077 55.1652 81.301 54.5809 80.493 54.1719C79.685 53.7628 78.7961 53.5394 77.8909 53.5178C75.7243 53.5178 73.793 54.8067 72.5632 56.8201C72.1931 57.4245 71.6692 57.9195 71.0451 58.2546C70.421 58.5896 69.7192 58.7526 69.0115 58.7268H68.896C66.503 58.7268 64.5629 61.4468 64.5629 64.798C64.5629 68.1491 66.503 70.8647 68.896 70.8647C69.4223 70.863 69.9404 70.7334 70.4055 70.487C71.2205 70.0898 72.112 69.875 73.0182 69.8573C73.9244 69.8397 74.8235 70.0196 75.6533 70.3847C76.3521 70.6957 77.1084 70.8564 77.8731 70.8564C78.6379 70.8564 79.3942 70.6957 80.093 70.3847C80.9161 70.0273 81.8065 69.8514 82.7036 69.869C83.6007 69.8866 84.4834 70.0974 85.2919 70.487C85.7532 70.7259 86.2643 70.8523 86.7837 70.8559C89.1767 70.8559 91.1168 68.1403 91.1168 64.7891C91.1337 63.4901 90.8237 62.2078 90.2156 61.0602Z" fill="#F5F8FA"/>
<path opacity="0.03" d="M83.7381 69.9403C82.4868 69.7004 81.1925 69.8413 80.022 70.3448C79.3226 70.6539 78.5667 70.8143 77.8022 70.8159C77.0289 70.8156 76.2646 70.6505 75.5601 70.3314C74.7298 69.9679 73.8306 69.7891 72.9245 69.8076C72.0185 69.826 71.1272 70.0411 70.3123 70.4381C69.8487 70.6845 69.3322 70.8142 68.8073 70.8159C66.6807 70.8159 64.9092 68.6692 64.5407 65.8425C64.9649 65.5309 65.3264 65.1418 65.6062 64.6958C66.8494 62.6824 68.7806 61.3935 70.9339 61.3935C73.0872 61.3935 75.0096 62.6691 76.2616 64.6558C76.6347 65.2599 77.1583 65.7566 77.7809 66.0971C78.4036 66.4376 79.104 66.6102 79.8134 66.598H79.8711C81.5448 66.598 83.0233 67.958 83.7381 69.9403Z" fill="black"/>
<path d="M235.847 15.8995L228.944 20.2729L233.126 12.6594C231.942 11.7135 230.476 11.1896 228.961 11.1705H228.85C228.372 11.1799 227.893 11.1442 227.421 11.0638L225.085 12.5483L226.084 10.7261C224.43 10.1447 223.001 9.0561 222 7.6149L217.822 10.2816L220.459 5.47265C218.017 2.53483 214.723 0.734802 211.096 0.734802C206.749 0.734802 202.878 3.32151 200.378 7.35712C199.637 8.56563 198.589 9.55598 197.342 10.2274C196.094 10.8988 194.691 11.2273 193.275 11.1794H193.044C188.245 11.1794 184.355 16.6239 184.355 23.344C184.355 30.0641 188.245 35.5087 193.044 35.5087C194.099 35.5053 195.136 35.2444 196.067 34.7486C197.701 33.9551 199.488 33.5258 201.304 33.4905C203.12 33.4552 204.922 33.8147 206.585 34.5442C207.99 35.1762 209.513 35.5048 211.054 35.5087C212.594 35.5125 214.118 35.1914 215.527 34.5664C217.177 33.8506 218.961 33.498 220.758 33.5325C222.556 33.567 224.326 33.9878 225.947 34.7664C226.872 35.2499 227.9 35.5044 228.944 35.5087C233.743 35.5087 237.632 30.0641 237.632 23.344C237.67 20.7519 237.057 18.1918 235.847 15.8995V15.8995Z" fill="#F5F8FA"/>
<path d="M72.2225 197.061L65.3188 201.434L69.501 193.821C68.3167 192.875 66.8514 192.351 65.3365 192.332H65.2255C64.7467 192.341 64.2681 192.306 63.7959 192.225L61.4606 193.71L62.4596 191.888C60.8052 191.306 59.3759 190.218 58.375 188.776L54.1973 191.443L56.8345 186.634C54.3926 183.696 51.0983 181.896 47.4711 181.896C43.1246 181.896 39.2531 184.483 36.7536 188.519C36.0124 189.727 34.9645 190.717 33.7168 191.389C32.469 192.06 31.0658 192.389 29.65 192.341H29.4192C24.6198 192.341 20.7307 197.785 20.7307 204.505C20.7307 211.226 24.6198 216.67 29.4192 216.67C30.4738 216.667 31.5116 216.406 32.4426 215.91C34.0767 215.117 35.8632 214.687 37.6791 214.652C39.4949 214.617 41.2968 214.976 42.9603 215.706C44.3656 216.338 45.8881 216.666 47.4287 216.67C48.9693 216.674 50.4935 216.353 51.9019 215.728C53.5517 215.012 55.3359 214.659 57.1336 214.694C58.9314 214.729 60.7008 215.149 62.3219 215.928C63.2473 216.411 64.2749 216.666 65.3188 216.67C70.1181 216.67 74.0073 211.226 74.0073 204.505C74.0455 201.913 73.4318 199.353 72.2225 197.061V197.061Z" fill="#F5F8FA"/>
<path opacity="0.03" d="M222.861 33.6998C220.354 33.2249 217.763 33.5064 215.416 34.5087C214.01 35.1387 212.487 35.4644 210.947 35.4644C209.407 35.4644 207.884 35.1387 206.479 34.5087C204.816 33.7772 203.013 33.4165 201.197 33.4518C199.381 33.4871 197.594 33.9175 195.961 34.7131C195.028 35.2074 193.989 35.4682 192.933 35.4731C188.671 35.4731 185.124 31.1708 184.387 25.4996C185.239 24.8797 185.963 24.0992 186.518 23.2018C189.017 19.1707 192.889 16.584 197.235 16.584C201.582 16.584 205.413 19.1173 207.908 23.1174C208.655 24.3263 209.702 25.3208 210.947 26.004C212.192 26.6871 213.592 27.0355 215.012 27.0152H215.123C218.492 27.0063 221.432 29.7264 222.861 33.6998Z" fill="black"/>
<path opacity="0.03" d="M59.2363 214.861C56.7293 214.386 54.1378 214.668 51.7909 215.67C50.3853 216.3 48.8625 216.626 47.3224 216.626C45.7822 216.626 44.2594 216.3 42.8538 215.67C41.1907 214.939 39.3886 214.578 37.5724 214.613C35.7563 214.649 33.9695 215.079 32.3361 215.875C31.4028 216.369 30.364 216.63 29.3082 216.635C25.046 216.635 21.4987 212.332 20.7617 206.661C21.6145 206.041 22.3384 205.261 22.8928 204.363C25.3923 200.332 29.2638 197.745 33.6103 197.745C37.9568 197.745 41.7882 200.279 44.2833 204.279C45.0299 205.488 46.0768 206.482 47.3217 207.165C48.5667 207.849 49.9673 208.197 51.3869 208.177H51.4979C54.8676 208.168 57.8067 210.888 59.2363 214.861Z" fill="black"/>
</g>
<defs>
<clipPath id="clip0_14_310">
<rect width="417.147" height="270.744" fill="white" transform="translate(0.0493164 0.730377)"/>
</clipPath>
</defs>
</svg>
